#!OML:ASF F:\VICON\USERDATA\INSTALL\rory3\rory3.ASF
:FULLY-SPECIFIED
:DEGREES
20
root 0.9908900000000009 17.9185 -13.649500000000033 -1.0373199999999978 -5.646669999999995 -4.494639999999999
lfemur -22.277199999999965 -3.7424899999999983 -14.944300000000004
ltibia 16.29020000000001
lfoot 3.0320299999999945 0.1293080000000003
ltoes -3.035420000000001
rfemur 11.890800000000024 6.226160000000004 29.764300000000002
rtibia 32.99190000000001
rfoot -7.956 -1.7821000000000042
rtoes -9.703420000000012
lowerback nan 2.632329999999995 4.809450000000004
upperback -0.310204000000001 4.050050000000004 1.3735399999999995
thorax -4.79389 1.8981300000000025 -1.7586900000000036
lowerneck -16.252 -3.0291 -1.4555099999999996
upperneck 22.2353 -3.89499 0.19301399999999902
head 9.76653 -1.9058499999999998 -0.19980800000000074
lclavicle -1.91951e-15 3.9756899999999934e-15
lhumerus -39.3199 10.01759999999999 79.6928
lradius 18.120400000000004
lwrist -0.6389480000000018
lhand -27.0395 18.007500000000007
lfingers nan
lthumb -0.4582550000000003 47.986799999999995
rclavicle -1.91951e-15 3.9756899999999934e-15
rhumerus -24.533700000000007 -12.3423 -81.7636
rradius 27.6697
rwrist 2.5871100000000022
rhand -20.067999999999994 nan
rfingers nan
rthumb 6.2741600000000055 -7.21312
21
root 1.0085774921334436 18.031834901794674 -11.615165260115406 -2.9640107493485512 -6.2041893591553805 -1.9141112588926394
lfemur -19.554106345996694 -1.8604508692460269 -21.13036619512695
ltibia 24.037396173089313
lfoot -3.8629684602467913 -0.09398837697326923
ltoes -4.62782087725728
rfemur 5.3401290879393635 4.152481210197506 25.88850263416463
rtibia 45.68506715063191
rfoot 2.474324578536148 2.169043208619213
rtoes -3.8241667727908806
lowerback nan 3.0701502541135195 2.972794846928225
upperback 0.07951909743728047 4.236502975123954 0.39375839611710406
thorax -4.820123739603594 1.9957078014948575 -1.7122365480920396
lowerneck -16.442496938121064 -3.0353729424049907 -1.480757664944547
upperneck 21.705558825177324 -3.856549612315376 0.2406244222622288
head 9.635255082208715 -1.9223154219681038 -0.10499983375835739
lclavicle 6.489076967274146e-17 2.008908755052733e-15
lhumerus -38.78075369039323 9.696763687104262 79.68252451898667
lradius 17.597012414188583
lwrist -1.7066818618400488
lhand -24.911986239709446 26.77243683371879
lfingers nan
lthumb 1.5977781181223347 56.6493268980995
rclavicle -6.584916245336521e-16 1.382873848103065e-15
rhumerus -25.787126251879258 -14.00744254745197 -81.33203461353997
rradius 27.022199268753827
rwrist 3.9306353718532647
rhand -18.49698893306813 nan
rfingers nan
rthumb 7.8392071993916606 -6.995039549241262
22
root 1.052644218504604 18.132452891049347 -10.812028524817185 -3.9117230607449986 -6.770333483664363 -0.415042722269539
lfemur -15.623907736365114 -1.358923427679415 -23.41876523039028
ltibia 24.477693666527554
lfoot -5.522941076037606 1.188447200738143
ltoes -0.7377464439415453
rfemur -1.6232674518321613 3.8065546177944016 23.17731362903143
rtibia 58.23478600228368
rfoot 16.441011624033884 4.104385332204332
rtoes 6.771779578335492
lowerback nan 2.9767645187645355 1.5069588768483304
upperback 0.35253390858173356 3.8923699201566757 -0.009950126624698852
thorax -4.856103639700309 1.9079655425409572 -1.124369018135281
lowerneck -16.098484377083917 -3.1100821363766036 -1.246237615354849
upperneck 21.502587054796166 -4.0130672840944 0.25114339588245627
head 9.575022054387071 -1.9606537369789179 -0.1594277000860663
lclavicle -3.623248964203428e-15 1.1724686853531517e-15
lhumerus -38.136262311602984 8.448837029025063 80.22602994427425
lradius 18.10109177328379
lwrist -0.883639977614056
lhand -25.26855757789605 25.33543553339887
lfingers nan
lthumb 1.0651516143331348 54.83999902186437
rclavicle -3.700988312172766e-15 1.0733922442474e-15
rhumerus -26.299182546431577 -15.683330227163701 -81.0882588429557
rradius 25.618166109238434
rwrist 6.0281638910809
rhand -18.10568884187069 nan
rfingers nan
rthumb 8.216191540746555 -7.224278780710481
23
root 1.0590492888356327 18.225995399026534 -10.44547481435062 -4.432366727344331 -7.423038156756274 0.538767595567152
lfemur -12.261029961678075 -0.8697557999876113 -24.966210547738637
ltibia 24.443525583723186
lfoot -6.06505844464581 1.8811765442183168
ltoes 1.8656460306285
rfemur -7.39978908569035 3.1599553260274567 21.617400355788945
rtibia 67.68420031023751
rfoot 19.72620095350728 1.6739554956393707
rtoes 15.073164330676605
lowerback nan 2.617209154891044 0.5890726593386966
upperback 0.41387678303011016 3.381636425878988 -0.4175782896920457
thorax -4.951068098182458 1.7001102866577356 -0.6424710244860147
lowerneck -16.30485583772277 -3.034721119598644 -1.5150378075651527
upperneck 21.479958604313904 -3.940513669596537 0.4521792554701624
head 9.569968468451732 -1.9264583481946262 -0.05777543186937531
lclavicle -1.1879134525061367e-15 1.8428590786362144e-15
lhumerus -37.500086867750376 7.511285048361195 80.82223414493612
lradius 18.72178141555787
lwrist 0.5445387915363771
lhand -25.435115618453782 24.60222024161204
lfingers nan
lthumb 1.091795097482478 54.46490037976986
rclavicle -2.1093734156801306e-15 9.179412177180363e-16
rhumerus -26.93496550277362 -17.320041997922075 -80.74289556195053
rradius 23.993682223642363
rwrist 8.512506398826963
rhand -17.724437540112845 nan
rfingers nan
rthumb 8.547803383575303 -7.243458927420433
24
root 1.0355425915962977 18.261984873305508 -10.102729842693902 -4.709383762611537 -7.542244510565563 0.8969921787480253
lfemur -9.320272836670075 -0.1594075933366459 -25.68068537825476
ltibia 24.403853325758195
lfoot -7.682697879316108 2.605300665386932
ltoes 1.5617945292041733
rfemur -11.703364434997255 2.3170388329815546 21.16340567610541
rtibia 72.46731999338846
rfoot 10.595980428914455 -2.164419317081819
rtoes 12.900116142113976
lowerback nan 2.1260199268197146 0.1205870611640707
upperback 0.5213848458058198 2.7596551519289 -0.3162905550572599
thorax -5.067068476954554 1.3835916834377202 -0.2852426725228897
lowerneck -16.4471293503779 -2.9584549005600422 -1.5010692809199004
upperneck 21.621754504630985 -3.7684830953020807 0.26837028644758476
head 9.638346540814851 -1.8541867470668358 -0.11464127161034357
lclavicle 1.1234696065827044e-15 1.8464567191930507e-15
lhumerus -36.813425858548236 6.663368207654247 81.00886391955474
lradius 19.594812184848234
lwrist 1.9646928120064455
lhand -26.195692930308606 23.026840319262853
lfingers nan
lthumb 0.43556758964444175 53.084903358917025
rclavicle 6.7593629096362315e-16 1.3911654556213298e-15
rhumerus -27.42852873295514 -19.348326309271616 -80.3311839705926
rradius 22.82053919020597
rwrist 10.820645983219713
rhand -17.468277037621608 nan
rfingers nan
rthumb 8.773311428972917 -7.182208874950976
25
root 0.9916358922020303 18.22978045942867 -9.87389433165861 -4.862388058917459 -6.8456262627819715 1.1845425762522002
lfemur -7.075911433300954 0.4509809534299607 -26.36157546851916
ltibia 24.674088871728582
lfoot -8.833432357227572 3.1985707179455938
ltoes 1.224946811032479
rfemur -15.903733431452192 1.0064099362239927 21.044363402552523
rtibia 73.76844689845585
rfoot 3.973204989735402 -4.39500565210772
rtoes 11.495889742087014
lowerback nan 1.5369338056988475 -0.40836160922946685
upperback 0.4713839824902549 1.9465933187049536 -0.2473861624002276
thorax -5.27256272761308 1.0013386069321237 0.35749236906601867
lowerneck -15.955557676672063 -3.0425855837903852 -2.0400059771936414
upperneck 21.66343961256081 -3.8094934883916203 0.376678560161209
head 9.645497107724172 -1.8704573673124805 -0.056712378360947835
lclavicle -5.7240863773296516e-15 1.004174915498715e-15
lhumerus -35.731764658723804 5.943137065356246 81.09285302720741
lradius 20.12641526714544
lwrist 2.54643273076634
lhand -26.886432096650466 21.767419772374506
lfingers nan
lthumb -0.13798817066042973 52.06590658501162
rclavicle -5.586344846888109e-15 1.1734831632983546e-15
rhumerus -27.850241807694847 -20.86516700266332 -79.7699129635524
rradius 22.096470423407958
rwrist 10.970092076487179
rhand -17.279632617480377 nan
rfingers nan
rthumb 8.96148115263644 -7.0552451162551275
26
root 0.9516851855797628 18.18615723290256 -9.216781652695525 -4.905846207622098 -5.550416610937299 1.4130850447672842
lfemur -5.883724178369196 0.4707163645792938 -26.812177468070537
ltibia 26.194243247461372
lfoot -9.224486530932865 3.7416244418805205
ltoes 0.8306851203597092
rfemur -20.302830559242857 -0.3339501373691762 21.175251488550305
rtibia 72.76048562409545
rfoot -0.9113403108577325 -4.845850101906327
rtoes 9.05869897832395
lowerback nan 0.8743957743544744 -0.9710158649361411
upperback 0.5042711166337386 1.122932244308207 -0.11797829724495879
thorax -5.433124291019607 0.6083022785419894 0.8103943902482377
lowerneck -16.401971947219238 -3.0011419280891425 -1.807474949733702
upperneck 21.714997156624673 -3.733987591906651 0.2197762847215612
head 9.708137060677073 -1.8582595282133763 -0.09797335070540625
lclavicle -3.2126963930936776e-15 1.864231814487436e-15
lhumerus -33.94109441041465 4.356608606318739 81.69674157029492
lradius 21.0413346012154
lwrist 3.279181983507301
lhand -27.699311965176108 20.74867572644095
lfingers nan
lthumb -0.8537523343424472 51.248008213154094
rclavicle -3.623707010736695e-15 1.597086465892182e-15
rhumerus -27.967115942582225 -21.450286904101617 -79.46279423001378
rradius 21.824709471181748
rwrist 10.320121443816902
rhand -17.337579621910802 nan
rfingers nan
rthumb 8.904341124282308 -6.3601361748839995
27
root 0.9215523986323468 18.14636462298432 -8.702844131399813 -4.795864315820337 -4.158529756834312 1.7597789276492226
lfemur -4.298730252326356 0.30143839595806554 -27.205514304818724
ltibia 26.938627620423038
lfoot -9.69300048345244 3.470403326536162
ltoes 0.44420434186983915
rfemur -23.642739490886566 -1.1732482600500926 21.135308631586874
rtibia 69.22928904638934
rfoot -4.654285666139659 -4.548031257920259
rtoes 7.469387015273796
lowerback nan 0.3974971341032492 -1.7722663639406238
upperback 0.6000845232062562 0.39781347607028195 0.2742233690813676
thorax -5.392533086009571 0.27058168458482673 1.3467834177357905
lowerneck -16.37879472197303 -2.9923723573448506 -2.0553349861156036
upperneck 21.551376452524643 -3.698124608433799 0.2358936801869207
head 9.644238543053444 -1.8404262252727506 -0.08078337154247606
lclavicle -1.988253449833558e-16 3.2779211799523504e-15
lhumerus -32.23033714783355 2.338065594478076 82.24834311951874
lradius 22.322785988327315
lwrist 4.25426811016119
lhand -28.02917637798149 21.049679933547836
lfingers nan
lthumb -1.2267746062725302 51.4819374408174
rclavicle -5.566675665602165e-16 3.005549045212386e-15
rhumerus -28.78583479054895 -21.782917347216536 -78.96134083078879
rradius 22.084200320531373
rwrist 9.82840416989248
rhand -17.347656800153146 nan
rfingers nan
rthumb 8.771972197605479 -6.607419604387229
